<svg width="328" height="305" viewBox="0 0 328 305" fill="none" xmlns="http://www.w3.org/2000/svg">
<g clip-path="url(#clip0_328_30)">
<path d="M17.5734 150.731C17.5734 150.731 15.1427 187.095 57.4978 181.034L59.9285 187.095C59.9285 187.095 71.9421 163.2 52.1336 159.315C48.1943 158.532 36.0689 158.822 36.0689 158.822L17.5734 150.731Z" fill="#5CC2AD"/>
<path d="M23.8876 218.412C23.8876 218.412 19.0263 221.457 10.2535 234.564L6.84497 227.489L18.5233 214.353L23.8876 218.412Z" fill="black"/>
<path d="M10.2535 234.593C10.2535 234.593 0.530817 223.98 5.8671 214.382C5.8671 214.382 10.7284 205.798 19.5011 206.813C19.5011 206.813 34.5881 189.647 53.0835 200.26C53.0835 200.26 56.9669 222.994 19.9761 220.964C20.0041 220.964 7.82287 220.964 10.2535 234.593Z" fill="#5CC2AD"/>
<path d="M9.86224 234.68C7.82271 225.14 10.4769 217.977 13.0752 213.656C15.897 208.959 19.1379 206.552 19.2776 206.465L19.7526 207.19C19.7247 207.219 16.4837 209.626 13.7737 214.178C11.2592 218.354 8.71686 225.314 10.6726 234.535L9.86224 234.68Z" fill="#17311D"/>
<path d="M71.3553 205.537C71.3553 205.537 74.7639 193.909 85.4644 194.924C85.4644 194.924 91.3594 185.964 102.507 193.909C106.418 196.693 109.799 199.97 108.346 212.613C108.346 212.613 104.686 206.291 95.2149 206.059C88.7332 205.885 71.3553 205.537 71.3553 205.537Z" fill="#5CC2AD"/>
<path d="M107.927 212.758C104.826 203.13 98.8471 198.955 94.349 197.157C89.4876 195.185 85.3248 195.504 85.2689 195.533L85.213 194.663C85.3806 194.634 89.6272 194.315 94.6562 196.345C99.3219 198.23 105.524 202.55 108.737 212.497L107.927 212.758Z" fill="#17311D"/>
<path d="M61.8563 229.548H45.7915C42.3551 229.548 39.3657 231.317 37.3262 232.969C35.6219 234.332 34.5881 235.608 34.5881 235.608C34.2528 231.52 35.9292 227.634 38.2481 224.937C39.3656 223.632 40.6229 222.617 41.8801 221.95C57.0508 214.092 61.8563 229.548 61.8563 229.548Z" fill="#197A83"/>
<path d="M55.5142 229.606C53.6703 219.659 46.4062 220.529 46.0988 220.587L46.0151 220.007C46.0989 220.007 54.0893 218.992 56.045 229.49L55.5142 229.606Z" fill="#020403"/>
<path d="M56.2279 228.075L54.8498 228.312L59.2851 256.003L60.6632 255.766L56.2279 228.075Z" fill="#22452A"/>
<path d="M64.0075 256.429L62.6385 256.226C64.7339 241.06 64.2869 232.476 63.6164 226.097C61.3254 204.928 51.0439 200.985 50.9321 200.927L51.3792 199.564C51.8262 199.738 62.5826 203.855 64.9854 225.923C65.6838 232.389 66.1029 241.089 64.0075 256.429Z" fill="#5CC2AD"/>
<path d="M63.8399 227.198C61.9121 201.651 58.5315 181.121 58.5035 180.918L59.8725 180.657C59.9004 180.86 63.309 201.448 65.2368 227.082L63.8399 227.198Z" fill="#5CC2AD"/>
<path d="M70.0701 257.733L68.7012 257.443C76.8593 217.571 76.971 202.666 76.971 202.521H78.368C78.368 202.666 78.2841 217.716 70.0701 257.733Z" fill="#5CC2AD"/>
<path d="M59.7328 186.92C59.7049 186.746 57.1905 170.421 46.3502 165.027C43.3887 163.548 34.7558 158.995 34.6719 158.966L35.0631 158.183C35.1469 158.241 43.7799 162.765 46.7414 164.244C58.0006 169.841 60.571 186.63 60.599 186.804L59.7328 186.92Z" fill="#17311D"/>
<path d="M37.3262 232.969C35.6219 234.332 34.5881 235.608 34.5881 235.608C34.2528 231.519 35.9292 227.634 38.2481 224.937C37.7731 226.88 37.1306 230.099 37.3262 232.969Z" fill="#020403"/>
<path d="M41.1536 253.529H87.8951L81.0781 303.55H47.9708L41.1536 253.529Z" fill="#4F216C"/>
<path d="M300.536 171.87C300.536 171.87 307.995 201.68 271.927 203.478L270.809 208.901C270.809 208.901 257.259 191.009 273.128 184.571C276.285 183.295 286.399 181.556 286.399 181.556L300.536 171.87Z" fill="#5CC2AD"/>
<path d="M307.549 232.621C307.549 232.621 312.326 232.94 323.809 239.319L323.725 232.65L310.063 227.459L307.549 232.621Z" fill="black"/>
<path d="M323.809 239.319C323.809 239.319 327.189 227.459 319.59 222.385C319.59 222.385 312.745 217.89 306.543 222.153C306.543 222.153 288.83 215.28 278.855 230.678C278.855 230.678 284.387 249.324 311.432 232.969C311.432 232.969 320.568 228.097 323.809 239.319Z" fill="#5CC2AD"/>
<path d="M323.391 239.435C319.675 224.676 306.599 222.588 306.46 222.588L306.571 221.718C306.711 221.747 310.064 222.24 313.919 224.647C317.496 226.879 322.161 231.2 324.201 239.203L323.391 239.435Z" fill="#17311D"/>
<path d="M261.841 220.761C261.841 220.761 258.964 210.931 249.911 211.801C249.911 211.801 244.938 204.232 235.523 210.96C232.226 213.308 229.349 216.092 230.578 226.764C230.578 226.764 233.651 221.428 241.67 221.225C247.146 221.022 261.841 220.761 261.841 220.761Z" fill="#5CC2AD"/>
<path d="M230.997 226.879L230.215 226.618C232.925 218.18 238.205 214.526 242.145 212.931C246.419 211.221 249.995 211.481 250.163 211.51L250.107 212.38C250.079 212.38 246.531 212.119 242.424 213.772C236.892 215.947 233.064 220.384 230.997 226.879Z" fill="#17311D"/>
<path d="M274.078 263.764C272.569 254.021 272.318 247.149 273.268 240.74C274.302 233.549 278.436 229.257 281.705 226.908C285.226 224.385 288.466 223.573 288.606 223.515L288.941 224.936C288.83 224.965 276.509 228.184 274.665 240.943C273.771 247.178 273.994 253.934 275.475 263.503L274.078 263.764Z" fill="#5CC2AD"/>
<path d="M269.049 264.954C265.864 245.554 266.675 229.373 267.932 219.253C269.273 208.234 271.368 201.941 271.452 201.68L272.765 202.144C272.681 202.405 264.384 227.952 270.446 264.722L269.049 264.954Z" fill="#5CC2AD"/>
<path d="M262.791 264.867C255.862 231.055 255.779 218.325 255.779 218.209H257.175C257.175 218.325 257.259 230.939 264.16 264.577L262.791 264.867Z" fill="#5CC2AD"/>
<path d="M271.005 208.814L270.167 208.669C270.195 208.553 272.234 196.112 279.387 188.138C281.287 186.021 286.874 181.063 287.098 180.86L287.629 181.527C287.573 181.585 281.845 186.659 279.973 188.747C273.017 196.518 271.005 208.669 271.005 208.814Z" fill="#17311D"/>
<path d="M287.321 261.3H247.844L253.627 303.55H281.565L287.321 261.3Z" fill="#4F216C"/>
<path d="M272.821 299.867L256.924 303.405C255.583 303.695 254.242 302.825 253.935 301.404L228.063 176.51L232.981 148.063L247.984 170.507L248.878 171.87L274.749 296.764C275.028 298.185 274.19 299.548 272.821 299.867Z" fill="#F1884F"/>
<path d="M248.906 171.899L228.092 176.539V176.51L230.886 160.242L232.981 148.063L239.463 157.777L239.798 158.241L248.878 171.87L248.906 171.899Z" fill="#FCBB9D"/>
<path d="M239.798 158.241L230.886 160.242L232.981 148.063L239.798 158.241Z" fill="#373133"/>
<path d="M268.91 268.52L258.489 270.811L238.093 172.711L247.984 170.508L248.878 171.87L268.91 268.52Z" fill="#D87245"/>
<path d="M248.906 171.899L238.401 174.248L235.188 158.676L239.462 157.777L239.798 158.241L248.878 171.87L248.906 171.899Z" fill="#DBA18A"/>
<path d="M239.798 158.241L235.3 159.256L232.981 148.063L239.798 158.241Z" fill="#161415"/>
<path d="M272.821 299.867L256.924 303.405C255.583 303.695 254.242 302.825 253.935 301.404L250.833 286.383L271.648 281.743L274.749 296.764C275.028 298.185 274.19 299.548 272.821 299.867Z" fill="#EE504F"/>
<path d="M268.711 267.398L247.896 272.04L250.966 286.868L271.78 282.226L268.711 267.398Z" fill="#373133"/>
<path d="M272.821 299.867L264.915 301.636L261.283 284.063L271.648 281.743L274.749 296.764C275.028 298.185 274.19 299.548 272.821 299.867Z" fill="#CE4646"/>
<path d="M268.691 267.407L258.339 269.716L261.409 284.544L271.761 282.235L268.691 267.407Z" fill="#161415"/>
<path d="M252.566 220.732C252.566 220.732 247.341 230.185 252.566 237.956H141.817V220.732H252.566Z" fill="#DBDCF1"/>
<path d="M254.354 238.595C254.354 239.029 254.186 239.406 253.907 239.696C253.627 239.986 253.264 240.16 252.845 240.16H88.0906C85.1012 240.16 82.6985 237.638 82.6985 234.564V224.85C82.6985 221.747 85.1291 219.253 88.0906 219.253H252.845C253.683 219.253 254.354 219.949 254.354 220.819C254.354 221.689 253.683 222.356 252.845 222.356H150.506C148.494 222.356 146.874 224.038 146.874 226.125V233.346C146.874 235.434 148.494 237.116 150.506 237.116H252.845C253.683 237.029 254.354 237.725 254.354 238.595Z" fill="#EE504F"/>
<path d="M254.326 238.305C254.41 238.856 254.242 239.349 253.907 239.697C253.627 239.987 253.264 240.161 252.845 240.161H149.528C146.119 240.161 143.325 237.29 143.325 233.723V225.633C143.325 222.095 146.091 219.195 149.528 219.195H252.761C253.544 219.195 254.242 219.775 254.326 220.587C254.41 221.515 253.711 222.298 252.845 222.298H150.506C148.494 222.298 146.874 223.98 146.874 226.068V233.288C146.874 235.376 148.494 237.058 150.506 237.058H252.789C253.543 237.029 254.186 237.551 254.326 238.305Z" fill="#D34848"/>
<path d="M251.895 273.914C251.895 273.914 246.447 288.268 251.895 300.912H168.638V273.914H251.895Z" fill="#DBDCF1"/>
<path d="M254.857 301.317C254.885 301.955 254.661 302.535 254.27 302.941C253.907 303.318 253.404 303.55 252.845 303.55H77.1666C72.5288 303.55 68.785 299.664 68.785 294.851V279.83C68.785 275.016 72.5288 271.13 77.1666 271.13H252.845C253.907 271.13 254.829 271.971 254.857 273.073C254.885 274.204 254.018 275.161 252.929 275.161H178.305C174.533 275.161 171.487 278.322 171.487 282.236V292.27C171.487 296.184 174.533 299.345 178.305 299.345H252.789C253.851 299.374 254.801 300.215 254.857 301.317Z" fill="#197A83"/>
<path d="M254.857 301.317C254.885 301.955 254.661 302.535 254.27 302.941C253.907 303.318 253.404 303.55 252.845 303.55H176.461C171.292 303.55 167.101 299.2 167.101 293.836V280.816C167.101 275.451 171.292 271.101 176.461 271.101H252.845C253.907 271.101 254.829 271.942 254.857 273.044C254.885 274.175 254.018 275.132 252.929 275.132H178.305C174.533 275.132 171.488 278.293 171.488 282.208V292.241C171.488 296.156 174.533 299.316 178.305 299.316H252.789C253.851 299.374 254.801 300.215 254.857 301.317Z" fill="#156468"/>
<path d="M245.274 280.294H198.84V280.642H245.274V280.294Z" fill="#373133"/>
<path d="M225.521 280.294L228.929 296.446L232.478 290.588V281.512L225.521 280.294Z" fill="#AFAFD5"/>
<path d="M242.731 284.499C242.731 284.528 242.731 284.528 242.731 284.528V296.388L235.97 291.11L228.929 296.388V284.441C228.929 281.512 225.549 280.294 225.549 280.294H240.468C242.703 280.99 242.731 284.151 242.731 284.499Z" fill="#6D68E0"/>
<path d="M242.731 284.499H228.929V284.441C228.929 281.512 225.549 280.294 225.549 280.294H240.468C242.703 280.99 242.731 284.151 242.731 284.499Z" fill="#5A5ABA"/>
<path d="M76.8873 241.669C76.8873 241.669 82.4192 257.327 76.8873 269.13H186.128V241.669H76.8873Z" fill="#DBDCF1"/>
<path d="M261.227 250.397V260.749C261.227 266.491 256.756 271.131 251.225 271.131H77.027C76.1609 271.131 75.4624 270.406 75.4624 269.507V269.42C75.4624 268.521 76.1609 267.796 77.027 267.796H176.042C180.009 267.796 183.222 264.461 183.222 260.343V250.716C183.222 246.598 180.009 243.264 176.042 243.264H77.027C76.5799 243.264 76.1888 243.09 75.9094 242.771C75.6021 242.452 75.4344 241.988 75.4624 241.495C75.5182 240.625 76.2446 239.987 77.0828 239.987H251.225C256.756 240.016 261.227 244.685 261.227 250.397Z" fill="#F1884F"/>
<path d="M187.664 249.411V261.764C187.664 266.926 183.613 271.131 178.64 271.131H77.027C76.1609 271.131 75.4624 270.406 75.4624 269.507V269.42C75.4624 268.521 76.1609 267.796 77.027 267.796H176.042C180.009 267.796 183.222 264.461 183.222 260.343V250.716C183.222 246.598 180.009 243.264 176.042 243.264H77.027C76.5799 243.264 76.1888 243.09 75.9094 242.771C75.6021 242.452 75.4344 241.988 75.4624 241.495C75.5182 240.625 76.2446 239.987 77.0828 239.987H178.612C183.613 240.016 187.664 244.221 187.664 249.411Z" fill="#D37146"/>
<path d="M133.239 259.995H86.8055V260.343H133.239V259.995Z" fill="#373133"/>
<path d="M106.195 259.908H100.244V267.738H106.195V259.908Z" fill="#AFAFD5"/>
<path d="M102.703 266.781V291.632L96.1928 285.542L89.9905 291.632V267.737L102.703 266.781Z" fill="#A82329"/>
<path d="M106.195 259.908H93.5666C93.5666 259.908 93.5666 265.766 89.9905 267.738H102.619C102.619 267.738 106.195 266.781 106.195 259.908Z" fill="#EE504F"/>
<path d="M228.231 189.153C228.231 189.153 223.901 201.768 228.231 215.6H118.683V189.646L228.231 189.153Z" fill="#DBDCF1"/>
<path d="M123.768 185.529H228.371C229.572 185.529 230.55 186.544 230.55 187.791C230.55 189.037 229.572 190.052 228.371 190.052H124.774C121.785 190.052 119.354 192.575 119.354 195.678V208.901C119.354 212.004 121.785 214.527 124.774 214.527H228.371C229.572 214.527 230.55 215.542 230.55 216.788V216.933C230.55 218.18 229.572 219.195 228.371 219.195H123.768C119.438 219.195 115.918 215.542 115.918 211.047V193.706C115.918 189.182 119.438 185.529 123.768 185.529Z" fill="#6D68E0"/>
<path d="M214.206 206.813H167.772V207.161H214.206V206.813Z" fill="#373133"/>
<path d="M199.119 206.813H194.23V214.585H199.119V206.813Z" fill="#AFAFD5"/>
<path d="M197.582 213.599V233.839L203.394 227.837L209.317 233.839V214.585L197.582 213.599Z" fill="#156468"/>
<path d="M194.23 206.813H205.768C205.768 206.813 205.768 212.642 209.317 214.585H197.778C197.778 214.585 194.23 213.599 194.23 206.813Z" fill="#197A83"/>
<path d="M210.266 14.8761L207.333 27.2002C207.333 27.2002 218.424 37.8715 238.652 34.6527L240.803 22.3576L210.266 14.8761Z" fill="#373133"/>
<path d="M223.621 25.2284L198.085 11.8894L198.756 10.3815L253.041 23.6915L252.817 25.2284H223.621Z" fill="#564F51"/>
<path d="M198.784 10.4105L227.393 11.9474L253.013 23.6625H224.096L198.784 10.4105Z" fill="#373133"/>
<path d="M239.63 39.3214H238.373V24.0395L226.583 16.413L227.253 15.3111L239.63 23.3145V39.3214Z" fill="#F1884F"/>
<path d="M224.068 14.4989C224.068 14.4989 223.845 14.5859 223.649 14.7889C223.258 15.1369 223.286 15.7748 223.705 16.0938C224.264 16.4998 225.297 17.0507 227.085 17.0797C227.588 17.0797 227.98 16.6158 227.896 16.1228C227.868 15.9488 227.812 15.7748 227.728 15.6299L224.068 14.4989Z" fill="#F1884F"/>
<path d="M227.729 15.8787C227.839 15.4449 227.057 14.8564 225.982 14.5641C224.907 14.2717 223.947 14.3864 223.838 14.8201C223.728 15.2539 224.511 15.8426 225.585 16.1349C226.66 16.4272 227.62 16.3124 227.729 15.8787Z" fill="#564F51"/>
<path d="M239.015 39.0605C239.49 39.0605 239.909 39.4665 239.909 39.9884L239.937 41.4093L240.58 46.6579H237.506L238.149 41.4093L238.177 39.9884C238.149 39.4665 238.54 39.0605 239.015 39.0605Z" fill="#F1884F"/>
<path d="M52.0776 125.503C59.947 125.503 66.3264 118.882 66.3264 110.714C66.3264 102.546 59.947 95.9252 52.0776 95.9252C44.2083 95.9252 37.8289 102.546 37.8289 110.714C37.8289 118.882 44.2083 125.503 52.0776 125.503Z" fill="#DBDCF1"/>
<path d="M46.7693 102.914V118.514L59.8167 110.772L46.7693 102.914Z" fill="#EE504F"/>
<path d="M119.354 23.3144C119.354 15.224 113.012 8.67047 105.217 8.69947C97.4501 8.72847 91.08 15.427 91.1638 23.4884C91.1918 27.8091 93.0358 31.6658 95.9414 34.3336C96.3884 34.7396 96.7796 35.1455 97.1428 35.6095C98.2883 37.0884 99.7131 39.6692 99.7131 43.4099H103.82H106.67H110.777C110.777 39.4662 112.369 36.7984 113.543 35.3775C113.85 35.0295 114.157 34.6816 114.521 34.3626C117.482 31.6658 119.354 27.7221 119.354 23.3144Z" fill="#F1884F"/>
<path d="M112.034 28.331C111.559 27.5191 110.469 26.3302 108.318 27.5191C108.151 27.4031 107.815 27.2581 107.396 27.1421C106.614 26.9391 105.859 27.0551 105.133 27.4321C104.938 27.3451 104.686 27.2291 104.351 27.1421C103.541 26.9391 102.758 27.0551 102.032 27.4611C99.9645 26.3592 98.9028 27.5191 98.4278 28.331C98.0925 28.911 98.0926 30.0419 98.372 31.7528C98.5955 33.0577 99.0146 34.7106 99.6293 36.6534C100.635 39.9592 101.808 43.004 101.836 43.033L102.367 42.801C102.367 42.772 101.194 39.7272 100.188 36.4504C98.4558 30.7669 98.6514 29.114 98.9308 28.621C99.5175 27.6061 100.384 27.3451 101.529 27.8671C101.417 27.9831 101.333 28.1281 101.25 28.331C101.082 28.737 100.97 29.259 100.97 29.8099C100.97 30.3609 101.054 30.9119 101.25 31.2888C101.445 31.7528 101.753 32.0428 102.116 32.0428C102.479 32.0428 102.758 31.7818 102.982 31.2888C103.15 30.8829 103.261 30.3609 103.261 29.8099C103.261 29.259 103.177 28.708 102.982 28.331C102.898 28.1281 102.786 27.9541 102.675 27.8381C103.513 27.4901 104.239 27.6931 104.686 27.8671C104.574 27.9831 104.491 28.1281 104.407 28.331C104.239 28.737 104.127 29.259 104.127 29.8099C104.127 30.3609 104.211 30.9119 104.407 31.2888C104.602 31.7528 104.91 32.0428 105.273 32.0428C105.608 32.0428 105.915 31.7818 106.139 31.2888C106.307 30.8829 106.418 30.3609 106.418 29.8099C106.418 29.259 106.334 28.708 106.139 28.331C106.055 28.0991 105.915 27.9251 105.804 27.8091C106.614 27.5191 107.34 27.6931 107.787 27.8961C107.676 28.0121 107.592 28.1571 107.508 28.331C107.34 28.737 107.228 29.259 107.228 29.8099C107.228 30.3609 107.312 30.9119 107.508 31.2888C107.703 31.7528 108.011 32.0428 108.374 32.0428C108.737 32.0428 109.017 31.7818 109.24 31.2888C109.408 30.8829 109.52 30.3609 109.52 29.8099C109.52 29.259 109.436 28.708 109.24 28.331C109.156 28.1571 109.073 28.0121 108.989 27.8961C110.162 27.3451 111.028 27.6061 111.615 28.65C111.894 29.143 112.09 30.7959 110.358 36.4794C109.352 39.7562 108.179 42.801 108.179 42.83L108.709 43.062C108.709 43.033 109.911 39.9592 110.916 36.6824C111.503 34.7396 111.922 33.0867 112.146 31.7818C112.397 30.0419 112.369 28.911 112.034 28.331ZM102.144 31.4628C101.948 31.4628 101.585 30.8829 101.585 29.8099C101.585 28.737 101.948 28.1571 102.144 28.1571C102.339 28.1571 102.703 28.737 102.703 29.8099C102.703 30.8829 102.339 31.4628 102.144 31.4628ZM105.832 29.8099C105.832 30.8829 105.468 31.4628 105.273 31.4628C105.077 31.4628 104.714 30.8829 104.714 29.8099C104.714 28.737 105.077 28.1571 105.273 28.1571C105.468 28.1571 105.832 28.737 105.832 29.8099ZM108.318 31.4628C108.123 31.4628 107.759 30.8829 107.759 29.8099C107.759 28.737 108.123 28.1571 108.318 28.1571C108.514 28.1571 108.877 28.737 108.877 29.8099C108.877 30.8829 108.514 31.4628 108.318 31.4628Z" fill="white"/>
<path d="M102.786 48.2526V49.1516C102.786 50.6015 103.904 51.7614 105.301 51.7614C106.698 51.7614 107.815 50.6015 107.815 49.1516V48.2526H102.786Z" fill="#373133"/>
<path d="M111.028 42.6269H99.5734V48.3395H111.028V42.6269Z" fill="#AFAFD5"/>
<path d="M100.328 49.8766H110.218C110.917 49.8766 111.503 49.2677 111.503 48.5427C111.503 47.8178 110.917 47.2088 110.218 47.2088H100.328C99.6293 47.2088 99.0426 47.8178 99.0426 48.5427C99.0426 49.2677 99.6293 49.8766 100.328 49.8766Z" fill="#DBDCF1"/>
<path d="M99.6573 43.2938H110.889C111.587 43.2938 112.174 42.6848 112.174 41.9598C112.174 41.2349 111.587 40.6259 110.889 40.6259H99.6573C98.9588 40.6259 98.3721 41.2349 98.3721 41.9598C98.4 42.7138 98.9588 43.2938 99.6573 43.2938Z" fill="#DBDCF1"/>
<path d="M99.6573 46.5996H110.889C111.587 46.5996 112.174 45.9907 112.174 45.2657C112.174 44.5408 111.587 43.9318 110.889 43.9318H99.6573C98.9588 43.9318 98.3721 44.5408 98.3721 45.2657C98.4 45.9907 98.9588 46.5996 99.6573 46.5996Z" fill="#DBDCF1"/>
<path d="M76.6637 67.9713L75.7418 63.1866L70.9363 65.1005L70.154 59.7939L65.5162 61.7368L64.9015 56.4881L60.9063 58.518L60.5432 57.735L65.5999 55.1832L66.2146 60.5188L70.8245 58.576L71.6068 63.9116L76.3563 61.9977L77.4739 67.7973L76.6637 67.9713Z" fill="#EE504F"/>
<path d="M253.99 75.8584L249.157 73.6545L249.492 72.8716L253.432 74.6405L254.549 69.9138L258.796 72.0886L259.858 67.449L264.495 70.0298L264.104 70.7837L260.416 68.7539L259.383 73.3646L255.108 71.1607L253.99 75.8584Z" fill="#197A83"/>
<path d="M160.619 10.5552L159.893 10.1203L162.016 6.32154L157.574 4.84265L160.033 0L160.787 0.405971L158.803 4.32069L163.274 5.82858L160.619 10.5552Z" fill="#6D68E0"/>
<path d="M256.225 107.669L257.343 103.957L259.885 104.827L260.835 103L269.3 105.813L269.245 107.756L283.13 112.367L281.929 116.223L256.225 107.669Z" fill="#F1884F"/>
<path d="M255.359 105.929L252.426 122.574L276.649 130.635L283.605 115.353L255.359 105.929Z" fill="#FFB392"/>
<path d="M202.751 91.2854C200.739 81.9481 193.922 78.4394 189.34 76.7575C182.887 74.3797 179.953 68.8701 179.953 68.8701C178.305 65.6223 177.047 63.4185 175.902 61.8526C180.065 61.3306 181.685 58.4018 181.685 58.4018C180.232 59.4457 178.668 59.9387 177.271 60.1417C179.366 59.3588 180.847 57.2999 180.847 54.8641C180.847 51.7613 178.416 49.2675 175.455 49.2675C172.465 49.2675 170.063 51.7903 170.063 54.8641C170.063 55.792 170.286 56.633 170.649 57.4159C163.078 53.5592 155.786 57.1549 152.964 60.7796C146.315 69.334 155.954 80.4982 155.954 80.4982L155.758 85.6888C145.756 97.317 153.97 107.06 153.97 107.06C165.481 114.977 182.607 112.454 191.296 110.424C195.571 109.438 199.203 106.48 201.13 102.421C202.555 99.3178 203.645 95.4031 202.751 91.2854Z" fill="#373133"/>
<path d="M163.246 88.7914V88.6754C163.246 88.6754 152.238 95.7219 153.635 71.0157C153.635 71.0157 154.529 65.9411 157.937 64.2592C157.937 64.2592 162.743 72.6396 172.13 74.1185C172.13 74.1185 174.924 69.7688 177.131 73.2775C177.131 73.2775 178.724 76.8153 175.734 79.5121L179.143 102.478L162.435 102.594L163.022 92.3291L163.246 88.7914Z" fill="#FCBB9D"/>
<path d="M137.905 257.211H125.305L123.489 250.194L122.008 244.423H134.916L135.838 248.309L137.905 257.211Z" fill="#FCBB9D"/>
<path d="M163.944 242.771L162.854 253.993L161.988 263.04L150.925 263.736L150.729 255.153L150.45 242.771H163.944Z" fill="#FCBB9D"/>
<path d="M135.838 248.309L123.489 250.194L122.008 244.423H134.916L135.838 248.309Z" fill="#E6A68A"/>
<path d="M163.944 242.771L162.854 253.993L150.729 255.153L150.45 242.771H163.944Z" fill="#E6A68A"/>
<path d="M162.743 93.7503L149.528 99.2019C146.399 100.971 143.996 103.871 142.767 107.35L133.184 134.376H147.824L144.722 165.346L192.246 170.74L191.631 128.925H205.852L201.55 109.264C200.516 104.509 197.331 100.565 193.028 98.6219L178.277 92.0394C178.277 92.0104 166.235 105.494 162.743 93.7503Z" fill="#5CC2AD"/>
<path d="M151.12 188.109L125.305 185.007L137.207 245.641H117.706L95.9134 173.176C95.9134 173.176 94.0696 169.348 96.9752 164.679C99.2382 160.996 103.233 158.851 107.452 158.851H159.222L151.12 188.109Z" fill="#311547"/>
<path d="M192.414 168.797C192.414 168.797 190.123 155.255 152.741 157.894C152.741 157.894 145.532 157.575 145.532 179.062V249.788H165.928L170.118 188.08C170.146 188.109 191.52 190.603 192.414 168.797Z" fill="#4F216C"/>
<path d="M136.983 251.238C136.983 251.238 131.535 256.602 124.439 254.428C124.439 254.428 112.146 264.809 109.911 267.477C108.458 269.187 109.939 271.826 112.09 271.391L139.721 264.925C141.286 264.606 142.152 262.866 141.481 261.387L136.983 251.238Z" fill="#311547"/>
<path d="M145.309 197.099C143.353 163.026 150.45 158.503 150.757 158.3L151.176 159.053L150.981 158.677L151.204 159.053C151.148 159.082 144.275 163.751 146.175 197.041L145.309 197.099Z" fill="white"/>
<path d="M162.352 259.473C162.352 259.473 164.81 260.691 165.313 269.942C165.369 270.84 164.671 271.594 163.804 271.594H142.627C140.615 271.594 139.666 269.043 141.146 267.622C144.303 264.635 147.013 263.127 150.925 259.85C150.925 259.879 157.686 264.49 162.352 259.473Z" fill="#4F216C"/>
<path d="M203.198 150.296L167.8 154.356L164.642 154.791L144.806 157.517C143.744 157.662 143.13 156.299 143.912 155.545L151.819 148.005C152.629 146.816 153.942 146.092 155.367 146.092H159.586L161.653 145.512L191.156 137.363L190.346 133.39L190.151 132.376L189.201 127.678L205.601 127.736L206.02 129.708L206.104 130.085L208.646 142.496C209.372 146.266 206.858 149.861 203.198 150.296Z" fill="#FCBB9D"/>
<path d="M205.991 129.737L190.122 132.376L189.172 127.678L205.572 127.736L205.991 129.737Z" fill="#E6A68A"/>
<path d="M164.642 154.791L144.806 157.517C143.744 157.662 143.13 156.299 143.912 155.545L151.819 148.005C152.629 146.816 153.942 146.092 155.367 146.092H159.586L161.653 145.512L164.642 154.791Z" fill="#E6A68A"/>
<path d="M130.753 143.772C132.296 143.772 133.547 142.473 133.547 140.872C133.547 139.27 132.296 137.972 130.753 137.972C129.21 137.972 127.959 139.27 127.959 140.872C127.959 142.473 129.21 143.772 130.753 143.772Z" fill="white"/>
<path d="M157.323 124.198L161.15 158.967H115.275L111.447 124.198H157.323Z" fill="#AFAFD5"/>
<path d="M182.998 156.415H155.814V158.967H182.998V156.415Z" fill="#AFAFD5"/>
<path d="M155.116 124.198L158.971 158.967H113.096L109.24 124.198H155.116Z" fill="#DBDCF1"/>
<path d="M131.395 143.685C132.939 143.685 134.189 142.386 134.189 140.785C134.189 139.183 132.939 137.885 131.395 137.885C129.852 137.885 128.602 139.183 128.602 140.785C128.602 142.386 129.852 143.685 131.395 143.685Z" fill="white"/>
<path d="M187.036 117.577L186.225 117.794L189.074 129.279L189.886 129.062L187.036 117.577Z" fill="#373133"/>
<path d="M170.147 84.0361C170.147 84.0361 169.308 90.3576 163.05 92.3295L163.246 88.8207C163.274 88.8207 163.274 88.7917 163.302 88.7917C165.229 87.8638 167.325 86.3849 170.147 84.0361Z" fill="#E6A68A"/>
<path d="M328 303.55H0V305H328V303.55Z" fill="#373133"/>
</g>
<defs>
<clipPath id="clip0_328_30">
<rect width="328" height="305" fill="white"/>
</clipPath>
</defs>
</svg>
