<svg width="1440" height="1024" viewBox="0 0 1440 1024" fill="none" xmlns="http://www.w3.org/2000/svg">
<g clip-path="url(#clip0_279_2)">
<rect width="1440" height="1024" fill="url(#paint0_linear_279_2)"/>
<g filter="url(#filter0_i_279_2)">
<path d="M1844 498.5C1844 824.624 1573.13 1089 1239 1089C904.868 1089 634 824.624 634 498.5C634 172.376 904.868 -92 1239 -92C1573.13 -92 1844 172.376 1844 498.5Z" fill="white"/>
</g>
<path d="M1378.58 938.162C1381.09 933.378 1379.06 927.56 1374.05 925.166C1369.04 922.772 1362.94 924.709 1360.43 929.492C1357.92 934.276 1359.95 940.094 1364.96 942.488C1369.97 944.882 1376.07 942.945 1378.58 938.162Z" fill="#AAE0FF" fill-opacity="0.25"/>
<path d="M1052.97 942.194C1051.76 939.648 1048.61 938.522 1045.95 939.68C1043.28 940.839 1042.1 943.842 1043.31 946.389C1044.52 948.935 1047.67 950.061 1050.33 948.903C1053 947.745 1054.18 944.741 1052.97 942.194Z" fill="#AAE0FF" fill-opacity="0.25"/>
<path d="M1334.38 569.448C1338.82 566.179 1339.64 560.097 1336.22 555.862C1332.8 551.628 1326.42 550.845 1321.99 554.114C1317.55 557.382 1316.73 563.465 1320.15 567.699C1323.57 571.933 1329.94 572.716 1334.38 569.448Z" fill="#AAE0FF" fill-opacity="0.25"/>
<path d="M1125.22 700.097C1122.6 695.37 1116.46 693.568 1111.5 696.072C1106.55 698.576 1104.66 704.438 1107.28 709.165C1109.9 713.892 1116.04 715.694 1120.99 713.19C1125.95 710.686 1127.84 704.824 1125.22 700.097Z" fill="#AAE0FF" fill-opacity="0.25"/>
<path d="M905.66 781.933C904.893 782.499 903.789 782.363 903.197 781.631L891.703 767.409C891.111 766.676 891.253 765.623 892.021 765.057C892.789 764.491 893.893 764.627 894.485 765.36L905.976 779.579C906.574 780.312 906.432 781.365 905.66 781.933Z" fill="#AAE0FF" fill-opacity="0.25"/>
<path d="M889.997 780.009C889.405 779.276 889.547 778.223 890.315 777.657L905.218 766.681C905.986 766.116 907.089 766.251 907.681 766.984C908.274 767.717 908.131 768.77 907.363 769.336L892.46 780.311C891.693 780.877 890.589 780.741 889.997 780.009Z" fill="#AAE0FF" fill-opacity="0.25"/>
<path d="M1200.69 906.523C1199.92 907.089 1198.82 906.953 1198.23 906.22L1186.74 892.002C1186.14 891.269 1186.29 890.216 1187.05 889.65C1187.82 889.085 1188.93 889.22 1189.52 889.953L1201.01 904.172C1201.6 904.904 1201.46 905.958 1200.69 906.523Z" fill="#E8F6FF"/>
<path d="M1185.03 904.599C1184.43 903.866 1184.58 902.813 1185.35 902.247L1200.25 891.271C1201.02 890.706 1202.12 890.841 1202.71 891.574C1203.3 892.307 1203.16 893.36 1202.39 893.925L1187.49 904.901C1186.72 905.467 1185.62 905.331 1185.03 904.599Z" fill="#E8F6FF"/>
<path d="M203.075 628.089C196.927 601.432 194.195 573.795 190.95 546.975C184.291 489.084 182.924 426.45 205.807 371.502C247.985 270.438 387.84 220.559 490.811 263.406C571.069 296.767 648.425 385.73 583.535 466.516C564.068 490.719 527.354 507.236 520.865 539.453C514.034 573.795 548.87 592.438 567.483 615.987C594.976 650.656 575.68 694.484 550.407 724.574C503.276 780.667 428.311 800.945 356.078 784.428C308.094 773.471 264.037 745.343 236.032 706.422C218.956 682.546 209.222 655.89 203.075 628.089Z" fill="url(#paint1_linear_279_2)"/>
<path opacity="0.52" d="M322.438 577.883C303.142 523.426 296.482 460.792 327.39 412.222C327.39 412.059 327.561 412.059 327.561 411.895C359.664 361.363 431.897 336.342 491.323 346.481C511.985 350.079 532.135 359.564 544.601 375.754C573.289 413.04 546.138 469.787 583.193 502.003C612.906 527.842 655.256 520.156 688.896 536.673C720.658 552.208 741.832 585.406 744.565 619.258C754.127 742.563 604.027 780.994 502.422 757.935C429.507 741.418 373.325 684.999 341.393 622.201C334.562 608.464 328.073 593.583 322.438 577.883Z" fill="url(#paint2_linear_279_2)"/>
<path d="M37.9465 315.9C91.7369 240.02 205.124 257.191 271.038 306.742C304.166 331.6 330.805 363.162 358.811 392.925C384.254 419.909 416.187 456.377 457.17 459.157C475.271 460.302 487.395 448.527 503.447 443.621C549.382 429.557 590.707 473.384 597.708 513.451C611.882 595.218 531.281 643.624 460.585 664.23C294.433 712.636 64.7563 635.284 19.3333 461.61C6.86755 414.839 8.57526 357.111 37.9465 315.9Z" fill="url(#paint3_linear_279_2)"/>
<path d="M87.1263 672.407C111.204 646.895 154.919 655.235 185.827 660.959C198.635 663.412 198.293 680.42 185.486 682.546C169.605 685.326 152.87 689.251 137.16 694.32C125.206 698.245 112.229 704.787 99.4213 701.516C86.9556 698.409 76.7098 683.527 87.1263 672.407Z" fill="url(#paint4_linear_279_2)"/>
<path d="M170.8 697.918C177.802 691.704 187.364 689.414 196.415 687.452C202.391 686.144 206.319 695.302 201.025 698.245C193.512 702.497 187.023 708.221 179.338 712.146C175.582 714.108 170.459 711.819 168.58 708.548C166.36 704.787 167.556 700.862 170.8 697.918Z" fill="url(#paint5_linear_279_2)"/>
<path d="M657.817 474.856C644.236 474.856 633.227 464.313 633.227 451.307C633.227 438.302 644.236 427.758 657.817 427.758C671.398 427.758 682.407 438.302 682.407 451.307C682.407 464.313 671.398 474.856 657.817 474.856Z" fill="url(#paint6_linear_279_2)"/>
<path d="M710.583 412.877C702.944 412.877 696.751 406.946 696.751 399.63C696.751 392.314 702.944 386.384 710.583 386.384C718.222 386.384 724.415 392.314 724.415 399.63C724.415 406.946 718.222 412.877 710.583 412.877Z" fill="url(#paint7_linear_279_2)"/>
<g clip-path="url(#clip1_279_2)">
<path d="M184.573 467.731C184.573 467.731 182.143 504.095 224.498 498.034L226.928 504.095C226.928 504.095 238.942 480.2 219.134 476.315C215.194 475.532 203.069 475.822 203.069 475.822L184.573 467.731Z" fill="#5CC2AD"/>
<path d="M190.888 535.412C190.888 535.412 186.026 538.457 177.254 551.564L173.845 544.489L185.523 531.353L190.888 535.412Z" fill="black"/>
<path d="M177.254 551.593C177.254 551.593 167.531 540.98 172.867 531.382C172.867 531.382 177.728 522.798 186.501 523.813C186.501 523.813 201.588 506.647 220.083 517.26C220.083 517.26 223.967 539.994 186.976 537.964C187.004 537.964 174.823 537.964 177.254 551.593Z" fill="#5CC2AD"/>
<path d="M176.862 551.68C174.823 542.14 177.477 534.977 180.075 530.656C182.897 525.959 186.138 523.552 186.278 523.465L186.753 524.19C186.725 524.219 183.484 526.626 180.774 531.178C178.259 535.354 175.717 542.314 177.673 551.535L176.862 551.68Z" fill="#17311D"/>
<path d="M238.355 522.537C238.355 522.537 241.764 510.909 252.464 511.924C252.464 511.924 258.359 502.964 269.507 510.909C273.418 513.693 276.799 516.97 275.346 529.613C275.346 529.613 271.686 523.291 262.215 523.059C255.733 522.885 238.355 522.537 238.355 522.537Z" fill="#5CC2AD"/>
<path d="M274.927 529.758C271.826 520.13 265.847 515.955 261.349 514.157C256.488 512.185 252.325 512.504 252.269 512.533L252.213 511.663C252.381 511.634 256.627 511.315 261.656 513.345C266.322 515.23 272.524 519.55 275.737 529.497L274.927 529.758Z" fill="#17311D"/>
<path d="M228.856 546.548H212.792C209.355 546.548 206.366 548.317 204.326 549.969C202.622 551.332 201.588 552.608 201.588 552.608C201.253 548.52 202.929 544.634 205.248 541.937C206.366 540.632 207.623 539.617 208.88 538.95C224.051 531.092 228.856 546.548 228.856 546.548Z" fill="#197A83"/>
<path d="M222.514 546.606C220.67 536.659 213.406 537.529 213.099 537.587L213.015 537.007C213.099 537.007 221.089 535.992 223.045 546.49L222.514 546.606Z" fill="#020403"/>
<path d="M223.228 545.075L221.85 545.312L226.285 573.003L227.663 572.766L223.228 545.075Z" fill="#22452A"/>
<path d="M231.008 573.429L229.639 573.226C231.734 558.06 231.287 549.476 230.616 543.097C228.325 521.928 218.044 517.985 217.932 517.927L218.379 516.564C218.826 516.738 229.583 520.855 231.985 542.923C232.684 549.389 233.103 558.089 231.008 573.429Z" fill="#5CC2AD"/>
<path d="M230.84 544.198C228.912 518.651 225.531 498.121 225.504 497.918L226.873 497.657C226.9 497.86 230.309 518.448 232.237 544.082L230.84 544.198Z" fill="#5CC2AD"/>
<path d="M237.07 574.733L235.701 574.443C243.859 534.571 243.971 519.666 243.971 519.521H245.368C245.368 519.666 245.284 534.716 237.07 574.733Z" fill="#5CC2AD"/>
<path d="M226.733 503.92C226.705 503.746 224.19 487.421 213.35 482.027C210.389 480.548 201.756 475.995 201.672 475.966L202.063 475.183C202.147 475.241 210.78 479.765 213.741 481.244C225.001 486.841 227.571 503.63 227.599 503.804L226.733 503.92Z" fill="#17311D"/>
<path d="M204.326 549.969C202.622 551.332 201.588 552.608 201.588 552.608C201.253 548.519 202.929 544.634 205.248 541.937C204.773 543.88 204.131 547.099 204.326 549.969Z" fill="#020403"/>
<path d="M208.154 570.529H254.895L248.078 620.55H214.971L208.154 570.529Z" fill="#4F216C"/>
<path d="M467.536 488.87C467.536 488.87 474.995 518.68 438.927 520.478L437.809 525.901C437.809 525.901 424.259 508.009 440.128 501.571C443.285 500.295 453.399 498.556 453.399 498.556L467.536 488.87Z" fill="#5CC2AD"/>
<path d="M474.549 549.621C474.549 549.621 479.326 549.94 490.809 556.319L490.725 549.65L477.063 544.459L474.549 549.621Z" fill="black"/>
<path d="M490.809 556.319C490.809 556.319 494.189 544.459 486.59 539.385C486.59 539.385 479.745 534.89 473.543 539.153C473.543 539.153 455.83 532.28 445.855 547.678C445.855 547.678 451.387 566.324 478.432 549.969C478.432 549.969 487.568 545.097 490.809 556.319Z" fill="#5CC2AD"/>
<path d="M490.391 556.435C486.675 541.676 473.599 539.588 473.46 539.588L473.571 538.718C473.711 538.747 477.064 539.24 480.919 541.647C484.496 543.879 489.161 548.2 491.201 556.203L490.391 556.435Z" fill="#17311D"/>
<path d="M428.841 537.761C428.841 537.761 425.964 527.931 416.911 528.801C416.911 528.801 411.938 521.232 402.523 527.96C399.226 530.308 396.349 533.092 397.578 543.764C397.578 543.764 400.651 538.428 408.67 538.225C414.146 538.022 428.841 537.761 428.841 537.761Z" fill="#5CC2AD"/>
<path d="M397.997 543.879L397.215 543.618C399.925 535.18 405.205 531.526 409.145 529.931C413.419 528.221 416.995 528.481 417.163 528.51L417.107 529.38C417.079 529.38 413.531 529.119 409.424 530.772C403.892 532.947 400.064 537.384 397.997 543.879Z" fill="#17311D"/>
<path d="M441.078 580.764C439.569 571.021 439.318 564.149 440.268 557.74C441.302 550.549 445.436 546.257 448.705 543.908C452.226 541.385 455.466 540.573 455.606 540.515L455.941 541.936C455.83 541.965 443.509 545.184 441.665 557.943C440.771 564.178 440.994 570.934 442.475 580.503L441.078 580.764Z" fill="#5CC2AD"/>
<path d="M436.049 581.954C432.864 562.554 433.675 546.373 434.932 536.253C436.273 525.234 438.368 518.941 438.452 518.68L439.765 519.144C439.681 519.405 431.384 544.952 437.446 581.722L436.049 581.954Z" fill="#5CC2AD"/>
<path d="M429.791 581.867C422.862 548.055 422.779 535.325 422.779 535.209H424.175C424.175 535.325 424.259 547.939 431.16 581.577L429.791 581.867Z" fill="#5CC2AD"/>
<path d="M438.005 525.814L437.167 525.669C437.195 525.553 439.234 513.112 446.387 505.138C448.287 503.021 453.874 498.063 454.098 497.86L454.629 498.527C454.573 498.585 448.845 503.659 446.973 505.747C440.017 513.518 438.005 525.669 438.005 525.814Z" fill="#17311D"/>
<path d="M454.321 578.3H414.844L420.627 620.55H448.565L454.321 578.3Z" fill="#4F216C"/>
<path d="M439.821 616.867L423.924 620.405C422.583 620.695 421.242 619.825 420.935 618.404L395.063 493.51L399.981 465.063L414.984 487.507L415.878 488.87L441.749 613.764C442.028 615.185 441.19 616.548 439.821 616.867Z" fill="#F1884F"/>
<path d="M415.906 488.899L395.092 493.539V493.51L397.886 477.242L399.981 465.063L406.463 474.777L406.798 475.241L415.878 488.87L415.906 488.899Z" fill="#FCBB9D"/>
<path d="M406.798 475.241L397.886 477.242L399.981 465.063L406.798 475.241Z" fill="#373133"/>
<path d="M435.91 585.52L425.489 587.811L405.093 489.711L414.984 487.508L415.878 488.87L435.91 585.52Z" fill="#D87245"/>
<path d="M415.906 488.899L405.401 491.248L402.188 475.676L406.462 474.777L406.798 475.241L415.878 488.87L415.906 488.899Z" fill="#DBA18A"/>
<path d="M406.798 475.241L402.3 476.256L399.981 465.063L406.798 475.241Z" fill="#161415"/>
<path d="M439.821 616.867L423.924 620.405C422.583 620.695 421.242 619.825 420.935 618.404L417.833 603.383L438.648 598.743L441.749 613.764C442.028 615.185 441.19 616.548 439.821 616.867Z" fill="#EE504F"/>
<path d="M435.711 584.398L414.896 589.04L417.966 603.868L438.78 599.226L435.711 584.398Z" fill="#373133"/>
<path d="M439.821 616.867L431.915 618.636L428.283 601.063L438.648 598.743L441.749 613.764C442.028 615.185 441.19 616.548 439.821 616.867Z" fill="#CE4646"/>
<path d="M435.691 584.407L425.339 586.716L428.409 601.544L438.761 599.235L435.691 584.407Z" fill="#161415"/>
<path d="M419.566 537.732C419.566 537.732 414.341 547.185 419.566 554.956H308.817V537.732H419.566Z" fill="#DBDCF1"/>
<path d="M421.354 555.595C421.354 556.029 421.186 556.406 420.907 556.696C420.627 556.986 420.264 557.16 419.845 557.16H255.091C252.101 557.16 249.698 554.638 249.698 551.564V541.85C249.698 538.747 252.129 536.253 255.091 536.253H419.845C420.683 536.253 421.354 536.949 421.354 537.819C421.354 538.689 420.683 539.356 419.845 539.356H317.506C315.494 539.356 313.874 541.038 313.874 543.125V550.346C313.874 552.434 315.494 554.116 317.506 554.116H419.845C420.683 554.029 421.354 554.725 421.354 555.595Z" fill="#EE504F"/>
<path d="M421.326 555.305C421.41 555.856 421.242 556.349 420.907 556.697C420.627 556.987 420.264 557.161 419.845 557.161H316.528C313.119 557.161 310.325 554.29 310.325 550.723V542.633C310.325 539.095 313.091 536.195 316.528 536.195H419.761C420.544 536.195 421.242 536.775 421.326 537.587C421.41 538.515 420.711 539.298 419.845 539.298H317.506C315.494 539.298 313.874 540.98 313.874 543.068V550.288C313.874 552.376 315.494 554.058 317.506 554.058H419.789C420.543 554.029 421.186 554.551 421.326 555.305Z" fill="#D34848"/>
<path d="M418.895 590.914C418.895 590.914 413.447 605.268 418.895 617.912H335.638V590.914H418.895Z" fill="#DBDCF1"/>
<path d="M421.857 618.317C421.885 618.955 421.661 619.535 421.27 619.941C420.907 620.318 420.404 620.55 419.845 620.55H244.167C239.529 620.55 235.785 616.664 235.785 611.851V596.83C235.785 592.016 239.529 588.13 244.167 588.13H419.845C420.907 588.13 421.829 588.971 421.857 590.073C421.885 591.204 421.018 592.161 419.929 592.161H345.305C341.533 592.161 338.487 595.322 338.487 599.236V609.27C338.487 613.184 341.533 616.345 345.305 616.345H419.789C420.851 616.374 421.801 617.215 421.857 618.317Z" fill="#197A83"/>
<path d="M421.857 618.317C421.885 618.955 421.661 619.535 421.27 619.941C420.907 620.318 420.404 620.55 419.845 620.55H343.461C338.292 620.55 334.101 616.2 334.101 610.836V597.816C334.101 592.451 338.292 588.101 343.461 588.101H419.845C420.907 588.101 421.829 588.942 421.857 590.044C421.885 591.175 421.018 592.132 419.929 592.132H345.305C341.533 592.132 338.488 595.293 338.488 599.208V609.241C338.488 613.156 341.533 616.316 345.305 616.316H419.789C420.851 616.374 421.801 617.215 421.857 618.317Z" fill="#156468"/>
<path d="M412.274 597.294H365.84V597.642H412.274V597.294Z" fill="#373133"/>
<path d="M392.521 597.294L395.929 613.446L399.478 607.588V598.512L392.521 597.294Z" fill="#AFAFD5"/>
<path d="M409.731 601.499C409.731 601.528 409.731 601.528 409.731 601.528V613.388L402.97 608.11L395.929 613.388V601.441C395.929 598.512 392.549 597.294 392.549 597.294H407.468C409.703 597.99 409.731 601.151 409.731 601.499Z" fill="#6D68E0"/>
<path d="M409.731 601.499H395.929V601.441C395.929 598.512 392.549 597.294 392.549 597.294H407.468C409.703 597.99 409.731 601.151 409.731 601.499Z" fill="#5A5ABA"/>
<path d="M243.887 558.669C243.887 558.669 249.419 574.327 243.887 586.13H353.128V558.669H243.887Z" fill="#DBDCF1"/>
<path d="M428.227 567.397V577.749C428.227 583.491 423.756 588.131 418.225 588.131H244.027C243.161 588.131 242.462 587.406 242.462 586.507V586.42C242.462 585.521 243.161 584.796 244.027 584.796H343.042C347.009 584.796 350.222 581.461 350.222 577.343V567.716C350.222 563.598 347.009 560.264 343.042 560.264H244.027C243.58 560.264 243.189 560.09 242.909 559.771C242.602 559.452 242.434 558.988 242.462 558.495C242.518 557.625 243.245 556.987 244.083 556.987H418.225C423.756 557.016 428.227 561.685 428.227 567.397Z" fill="#F1884F"/>
<path d="M354.664 566.411V578.764C354.664 583.926 350.613 588.131 345.64 588.131H244.027C243.161 588.131 242.462 587.406 242.462 586.507V586.42C242.462 585.521 243.161 584.796 244.027 584.796H343.042C347.009 584.796 350.222 581.461 350.222 577.343V567.716C350.222 563.598 347.009 560.264 343.042 560.264H244.027C243.58 560.264 243.189 560.09 242.909 559.771C242.602 559.452 242.434 558.988 242.462 558.495C242.518 557.625 243.245 556.987 244.083 556.987H345.612C350.613 557.016 354.664 561.221 354.664 566.411Z" fill="#D37146"/>
<path d="M300.239 576.995H253.805V577.343H300.239V576.995Z" fill="#373133"/>
<path d="M273.195 576.908H267.244V584.738H273.195V576.908Z" fill="#AFAFD5"/>
<path d="M269.703 583.781V608.632L263.193 602.542L256.99 608.632V584.737L269.703 583.781Z" fill="#A82329"/>
<path d="M273.195 576.908H260.567C260.567 576.908 260.567 582.766 256.99 584.738H269.619C269.619 584.738 273.195 583.781 273.195 576.908Z" fill="#EE504F"/>
<path d="M395.231 506.153C395.231 506.153 390.901 518.768 395.231 532.6H285.683V506.646L395.231 506.153Z" fill="#DBDCF1"/>
<path d="M290.768 502.529H395.371C396.572 502.529 397.55 503.544 397.55 504.791C397.55 506.037 396.572 507.052 395.371 507.052H291.774C288.785 507.052 286.354 509.575 286.354 512.678V525.901C286.354 529.004 288.785 531.527 291.774 531.527H395.371C396.572 531.527 397.55 532.542 397.55 533.788V533.933C397.55 535.18 396.572 536.195 395.371 536.195H290.768C286.438 536.195 282.918 532.542 282.918 528.047V510.706C282.918 506.182 286.438 502.529 290.768 502.529Z" fill="#6D68E0"/>
<path d="M381.206 523.813H334.772V524.161H381.206V523.813Z" fill="#373133"/>
<path d="M366.119 523.813H361.23V531.585H366.119V523.813Z" fill="#AFAFD5"/>
<path d="M364.582 530.599V550.839L370.394 544.837L376.317 550.839V531.585L364.582 530.599Z" fill="#156468"/>
<path d="M361.23 523.813H372.768C372.768 523.813 372.768 529.642 376.317 531.585H364.778C364.778 531.585 361.23 530.599 361.23 523.813Z" fill="#197A83"/>
<path d="M377.266 331.876L374.333 344.2C374.333 344.2 385.424 354.871 405.652 351.653L407.803 339.358L377.266 331.876Z" fill="#373133"/>
<path d="M390.621 342.228L365.085 328.889L365.756 327.381L420.041 340.691L419.817 342.228H390.621Z" fill="#564F51"/>
<path d="M365.784 327.41L394.393 328.947L420.013 340.662H391.096L365.784 327.41Z" fill="#373133"/>
<path d="M406.63 356.321H405.373V341.039L393.583 333.413L394.253 332.311L406.63 340.315V356.321Z" fill="#F1884F"/>
<path d="M391.068 331.499C391.068 331.499 390.845 331.586 390.649 331.789C390.258 332.137 390.286 332.775 390.705 333.094C391.264 333.5 392.297 334.051 394.085 334.08C394.588 334.08 394.98 333.616 394.896 333.123C394.868 332.949 394.812 332.775 394.728 332.63L391.068 331.499Z" fill="#F1884F"/>
<path d="M394.729 332.879C394.839 332.445 394.057 331.856 392.982 331.564C391.907 331.272 390.947 331.386 390.838 331.82C390.728 332.254 391.511 332.843 392.585 333.135C393.66 333.427 394.62 333.312 394.729 332.879Z" fill="#564F51"/>
<path d="M406.015 356.06C406.49 356.06 406.909 356.466 406.909 356.988L406.937 358.409L407.58 363.658H404.506L405.149 358.409L405.177 356.988C405.149 356.466 405.54 356.06 406.015 356.06Z" fill="#F1884F"/>
<path d="M219.078 442.503C226.947 442.503 233.326 435.882 233.326 427.714C233.326 419.546 226.947 412.925 219.078 412.925C211.208 412.925 204.829 419.546 204.829 427.714C204.829 435.882 211.208 442.503 219.078 442.503Z" fill="#DBDCF1"/>
<path d="M213.769 419.914V435.514L226.817 427.772L213.769 419.914Z" fill="#EE504F"/>
<path d="M286.354 340.314C286.354 332.224 280.012 325.67 272.217 325.699C264.45 325.728 258.08 332.427 258.164 340.488C258.192 344.809 260.036 348.666 262.941 351.334C263.388 351.74 263.78 352.146 264.143 352.61C265.288 354.088 266.713 356.669 266.713 360.41H270.82H273.67H277.777C277.777 356.466 279.369 353.798 280.543 352.378C280.85 352.03 281.157 351.682 281.521 351.363C284.482 348.666 286.354 344.722 286.354 340.314Z" fill="#F1884F"/>
<path d="M279.034 345.331C278.559 344.519 277.469 343.33 275.318 344.519C275.151 344.403 274.815 344.258 274.396 344.142C273.614 343.939 272.859 344.055 272.133 344.432C271.938 344.345 271.686 344.229 271.351 344.142C270.541 343.939 269.758 344.055 269.032 344.461C266.965 343.359 265.903 344.519 265.428 345.331C265.093 345.911 265.093 347.042 265.372 348.753C265.596 350.058 266.015 351.711 266.629 353.653C267.635 356.959 268.808 360.004 268.836 360.033L269.367 359.801C269.367 359.772 268.194 356.727 267.188 353.45C265.456 347.767 265.651 346.114 265.931 345.621C266.518 344.606 267.384 344.345 268.529 344.867C268.417 344.983 268.333 345.128 268.25 345.331C268.082 345.737 267.97 346.259 267.97 346.81C267.97 347.361 268.054 347.912 268.25 348.289C268.445 348.753 268.753 349.043 269.116 349.043C269.479 349.043 269.758 348.782 269.982 348.289C270.15 347.883 270.261 347.361 270.261 346.81C270.261 346.259 270.177 345.708 269.982 345.331C269.898 345.128 269.786 344.954 269.675 344.838C270.513 344.49 271.239 344.693 271.686 344.867C271.574 344.983 271.491 345.128 271.407 345.331C271.239 345.737 271.127 346.259 271.127 346.81C271.127 347.361 271.211 347.912 271.407 348.289C271.602 348.753 271.91 349.043 272.273 349.043C272.608 349.043 272.915 348.782 273.139 348.289C273.307 347.883 273.418 347.361 273.418 346.81C273.418 346.259 273.334 345.708 273.139 345.331C273.055 345.099 272.915 344.925 272.804 344.809C273.614 344.519 274.34 344.693 274.787 344.896C274.676 345.012 274.592 345.157 274.508 345.331C274.34 345.737 274.228 346.259 274.228 346.81C274.228 347.361 274.312 347.912 274.508 348.289C274.703 348.753 275.011 349.043 275.374 349.043C275.737 349.043 276.017 348.782 276.24 348.289C276.408 347.883 276.52 347.361 276.52 346.81C276.52 346.259 276.436 345.708 276.24 345.331C276.156 345.157 276.073 345.012 275.989 344.896C277.162 344.345 278.028 344.606 278.615 345.65C278.894 346.143 279.09 347.796 277.358 353.479C276.352 356.756 275.179 359.801 275.179 359.83L275.709 360.062C275.709 360.033 276.911 356.959 277.916 353.682C278.503 351.74 278.922 350.087 279.146 348.782C279.397 347.042 279.369 345.911 279.034 345.331ZM269.144 348.463C268.948 348.463 268.585 347.883 268.585 346.81C268.585 345.737 268.948 345.157 269.144 345.157C269.339 345.157 269.703 345.737 269.703 346.81C269.703 347.883 269.339 348.463 269.144 348.463ZM272.832 346.81C272.832 347.883 272.468 348.463 272.273 348.463C272.077 348.463 271.714 347.883 271.714 346.81C271.714 345.737 272.077 345.157 272.273 345.157C272.468 345.157 272.832 345.737 272.832 346.81ZM275.318 348.463C275.123 348.463 274.759 347.883 274.759 346.81C274.759 345.737 275.123 345.157 275.318 345.157C275.514 345.157 275.877 345.737 275.877 346.81C275.877 347.883 275.514 348.463 275.318 348.463Z" fill="white"/>
<path d="M269.786 365.253V366.152C269.786 367.601 270.904 368.761 272.301 368.761C273.698 368.761 274.815 367.601 274.815 366.152V365.253H269.786Z" fill="#373133"/>
<path d="M278.028 359.627H266.573V365.34H278.028V359.627Z" fill="#AFAFD5"/>
<path d="M267.328 366.877H277.218C277.917 366.877 278.503 366.268 278.503 365.543C278.503 364.818 277.917 364.209 277.218 364.209H267.328C266.629 364.209 266.043 364.818 266.043 365.543C266.043 366.268 266.629 366.877 267.328 366.877Z" fill="#DBDCF1"/>
<path d="M266.657 360.294H277.889C278.587 360.294 279.174 359.685 279.174 358.96C279.174 358.235 278.587 357.626 277.889 357.626H266.657C265.959 357.626 265.372 358.235 265.372 358.96C265.4 359.714 265.959 360.294 266.657 360.294Z" fill="#DBDCF1"/>
<path d="M266.657 363.6H277.889C278.587 363.6 279.174 362.991 279.174 362.266C279.174 361.541 278.587 360.932 277.889 360.932H266.657C265.959 360.932 265.372 361.541 265.372 362.266C265.4 362.991 265.959 363.6 266.657 363.6Z" fill="#DBDCF1"/>
<path d="M243.664 384.971L242.742 380.187L237.936 382.101L237.154 376.794L232.516 378.737L231.901 373.488L227.906 375.518L227.543 374.735L232.6 372.183L233.215 377.519L237.825 375.576L238.607 380.912L243.356 378.998L244.474 384.797L243.664 384.971Z" fill="#EE504F"/>
<path d="M420.99 392.858L416.157 390.655L416.492 389.872L420.432 391.64L421.549 386.914L425.796 389.089L426.858 384.449L431.495 387.03L431.104 387.784L427.416 385.754L426.383 390.365L422.108 388.161L420.99 392.858Z" fill="#197A83"/>
<path d="M327.619 327.555L326.893 327.12L329.016 323.322L324.574 321.843L327.033 317L327.787 317.406L325.803 321.321L330.274 322.829L327.619 327.555Z" fill="#6D68E0"/>
<path d="M423.225 424.669L424.343 420.957L426.885 421.827L427.835 420L436.3 422.813L436.245 424.756L450.13 429.367L448.929 433.223L423.225 424.669Z" fill="#F1884F"/>
<path d="M422.359 422.929L419.426 439.574L443.649 447.635L450.605 432.353L422.359 422.929Z" fill="#FFB392"/>
<path d="M369.751 408.285C367.739 398.948 360.922 395.439 356.34 393.757C349.887 391.38 346.953 385.87 346.953 385.87C345.305 382.622 344.047 380.418 342.902 378.853C347.065 378.331 348.685 375.402 348.685 375.402C347.232 376.446 345.668 376.939 344.271 377.142C346.366 376.359 347.847 374.3 347.847 371.864C347.847 368.761 345.416 366.267 342.455 366.267C339.465 366.267 337.063 368.79 337.063 371.864C337.063 372.792 337.286 373.633 337.649 374.416C330.078 370.559 322.786 374.155 319.964 377.78C313.315 386.334 322.954 397.498 322.954 397.498L322.758 402.689C312.756 414.317 320.97 424.06 320.97 424.06C332.481 431.977 349.607 429.454 358.296 427.424C362.571 426.438 366.203 423.48 368.13 419.421C369.555 416.318 370.645 412.403 369.751 408.285Z" fill="#373133"/>
<path d="M330.246 405.791V405.675C330.246 405.675 319.238 412.722 320.635 388.016C320.635 388.016 321.529 382.941 324.937 381.259C324.937 381.259 329.743 389.64 339.13 391.118C339.13 391.118 341.924 386.769 344.131 390.278C344.131 390.278 345.724 393.815 342.734 396.512L346.143 419.478L329.435 419.594L330.022 409.329L330.246 405.791Z" fill="#FCBB9D"/>
<path d="M304.905 574.211H292.305L290.489 567.194L289.008 561.423H301.916L302.838 565.309L304.905 574.211Z" fill="#FCBB9D"/>
<path d="M330.944 559.771L329.854 570.993L328.988 580.04L317.925 580.736L317.729 572.153L317.45 559.771H330.944Z" fill="#FCBB9D"/>
<path d="M302.838 565.309L290.489 567.194L289.008 561.423H301.916L302.838 565.309Z" fill="#E6A68A"/>
<path d="M330.944 559.771L329.854 570.993L317.729 572.153L317.45 559.771H330.944Z" fill="#E6A68A"/>
<path d="M329.743 410.75L316.528 416.202C313.399 417.971 310.996 420.871 309.767 424.35L300.184 451.376H314.824L311.722 482.346L359.246 487.74L358.631 445.925H372.852L368.55 426.264C367.516 421.509 364.331 417.565 360.028 415.622L345.277 409.039C345.277 409.01 333.235 422.494 329.743 410.75Z" fill="#5CC2AD"/>
<path d="M318.12 505.109L292.305 502.007L304.207 562.641H284.706L262.913 490.176C262.913 490.176 261.07 486.348 263.975 481.679C266.238 477.996 270.233 475.851 274.452 475.851H326.222L318.12 505.109Z" fill="#311547"/>
<path d="M359.414 485.797C359.414 485.797 357.123 472.255 319.741 474.894C319.741 474.894 312.532 474.575 312.532 496.062V566.788H332.928L337.118 505.08C337.146 505.109 358.52 507.603 359.414 485.797Z" fill="#4F216C"/>
<path d="M303.983 568.238C303.983 568.238 298.535 573.602 291.439 571.428C291.439 571.428 279.146 581.809 276.911 584.477C275.458 586.187 276.939 588.826 279.09 588.391L306.721 581.925C308.286 581.606 309.152 579.866 308.481 578.387L303.983 568.238Z" fill="#311547"/>
<path d="M312.309 514.099C310.353 480.026 317.45 475.503 317.757 475.3L318.176 476.053L317.981 475.677L318.204 476.053C318.148 476.082 311.275 480.751 313.175 514.041L312.309 514.099Z" fill="white"/>
<path d="M329.352 576.473C329.352 576.473 331.81 577.691 332.313 586.942C332.369 587.84 331.671 588.594 330.804 588.594H309.627C307.615 588.594 306.666 586.043 308.146 584.622C311.303 581.635 314.013 580.127 317.925 576.85C317.925 576.879 324.686 581.49 329.352 576.473Z" fill="#4F216C"/>
<path d="M370.198 467.296L334.8 471.356L331.642 471.791L311.806 474.517C310.744 474.662 310.13 473.299 310.912 472.545L318.819 465.005C319.629 463.816 320.942 463.092 322.367 463.092H326.586L328.653 462.512L358.156 454.363L357.346 450.39L357.151 449.376L356.201 444.678L372.601 444.736L373.02 446.708L373.104 447.085L375.646 459.496C376.372 463.266 373.858 466.861 370.198 467.296Z" fill="#FCBB9D"/>
<path d="M372.991 446.737L357.122 449.376L356.172 444.678L372.572 444.736L372.991 446.737Z" fill="#E6A68A"/>
<path d="M331.642 471.791L311.806 474.517C310.744 474.662 310.13 473.299 310.912 472.545L318.819 465.005C319.629 463.816 320.942 463.092 322.367 463.092H326.586L328.653 462.512L331.642 471.791Z" fill="#E6A68A"/>
<path d="M297.753 460.772C299.296 460.772 300.547 459.473 300.547 457.872C300.547 456.27 299.296 454.972 297.753 454.972C296.21 454.972 294.959 456.27 294.959 457.872C294.959 459.473 296.21 460.772 297.753 460.772Z" fill="white"/>
<path d="M324.323 441.198L328.15 475.967H282.275L278.447 441.198H324.323Z" fill="#AFAFD5"/>
<path d="M349.998 473.415H322.814V475.967H349.998V473.415Z" fill="#AFAFD5"/>
<path d="M322.116 441.198L325.971 475.967H280.096L276.24 441.198H322.116Z" fill="#DBDCF1"/>
<path d="M298.395 460.685C299.939 460.685 301.189 459.386 301.189 457.785C301.189 456.183 299.939 454.885 298.395 454.885C296.852 454.885 295.602 456.183 295.602 457.785C295.602 459.386 296.852 460.685 298.395 460.685Z" fill="white"/>
<path d="M354.036 434.577L353.225 434.794L356.074 446.279L356.886 446.062L354.036 434.577Z" fill="#373133"/>
<path d="M337.147 401.036C337.147 401.036 336.308 407.358 330.05 409.329L330.246 405.821C330.274 405.821 330.274 405.792 330.302 405.792C332.229 404.864 334.325 403.385 337.147 401.036Z" fill="#E6A68A"/>
<path d="M495 620.55H167V622H495V620.55Z" fill="#373133"/>
</g>
</g>
<defs>
<filter id="filter0_i_279_2" x="634" y="-106" width="1238" height="1195" filterUnits="userSpaceOnUse" color-interpolation-filters="sRGB">
<feFlood flood-opacity="0" result="BackgroundImageFix"/>
<feBlend mode="normal" in="SourceGraphic" in2="BackgroundImageFix" result="shape"/>
<feColorMatrix in="SourceAlpha" type="matrix" values="0 0 0 0 0 0 0 0 0 0 0 0 0 0 0 0 0 0 127 0" result="hardAlpha"/>
<feOffset dx="67" dy="-14"/>
<feGaussianBlur stdDeviation="14"/>
<feComposite in2="hardAlpha" operator="arithmetic" k2="-1" k3="1"/>
<feColorMatrix type="matrix" values="0 0 0 0 0.909804 0 0 0 0 0.964706 0 0 0 0 1 0 0 0 1 0"/>
<feBlend mode="normal" in2="shape" result="effect1_innerShadow_279_2"/>
</filter>
<linearGradient id="paint0_linear_279_2" x1="720" y1="0" x2="720" y2="1024" gradientUnits="userSpaceOnUse">
<stop stop-color="#4763E4"/>
<stop offset="1" stop-color="#27377E"/>
</linearGradient>
<linearGradient id="paint1_linear_279_2" x1="397.221" y1="248" x2="397.221" y2="790" gradientUnits="userSpaceOnUse">
<stop stop-color="#FAFAFA" stop-opacity="0.7"/>
<stop offset="1" stop-color="#FAFAFA"/>
</linearGradient>
<linearGradient id="paint2_linear_279_2" x1="525.541" y1="344.259" x2="525.541" y2="764.274" gradientUnits="userSpaceOnUse">
<stop stop-color="#FAFAFA" stop-opacity="0.7"/>
<stop offset="1" stop-color="#FAFAFA"/>
</linearGradient>
<linearGradient id="paint3_linear_279_2" x1="305.672" y1="264.237" x2="305.672" y2="678.421" gradientUnits="userSpaceOnUse">
<stop stop-color="#FAFAFA" stop-opacity="0.7"/>
<stop offset="1" stop-color="#FAFAFA"/>
</linearGradient>
<linearGradient id="paint4_linear_279_2" x1="139.046" y1="654.94" x2="139.046" y2="702.403" gradientUnits="userSpaceOnUse">
<stop stop-color="#FAFAFA" stop-opacity="0.7"/>
<stop offset="1" stop-color="#FAFAFA"/>
</linearGradient>
<linearGradient id="paint5_linear_279_2" x1="185.479" y1="687.325" x2="185.479" y2="712.872" gradientUnits="userSpaceOnUse">
<stop stop-color="#FAFAFA" stop-opacity="0.7"/>
<stop offset="1" stop-color="#FAFAFA"/>
</linearGradient>
<linearGradient id="paint6_linear_279_2" x1="657.817" y1="427.758" x2="657.817" y2="474.856" gradientUnits="userSpaceOnUse">
<stop stop-color="#FAFAFA" stop-opacity="0.7"/>
<stop offset="1" stop-color="#FAFAFA"/>
</linearGradient>
<linearGradient id="paint7_linear_279_2" x1="710.583" y1="386.384" x2="710.583" y2="412.877" gradientUnits="userSpaceOnUse">
<stop stop-color="#FAFAFA" stop-opacity="0.7"/>
<stop offset="1" stop-color="#FAFAFA"/>
</linearGradient>
<clipPath id="clip0_279_2">
<rect width="1440" height="1024" fill="white"/>
</clipPath>
<clipPath id="clip1_279_2">
<rect width="328" height="305" fill="white" transform="translate(167 317)"/>
</clipPath>
</defs>
</svg>
