<svg width="733" height="542" viewBox="0 0 733 542" fill="none" xmlns="http://www.w3.org/2000/svg">
<path d="M191.075 380.089C184.927 353.432 182.195 325.795 178.95 298.975C172.291 241.084 170.924 178.45 193.807 123.502C235.985 22.4375 375.84 -27.4406 478.811 15.4055C559.069 48.7667 636.425 137.73 571.535 218.516C552.068 242.719 515.354 259.236 508.865 291.453C502.034 325.795 536.87 344.438 555.483 367.987C582.976 402.656 563.68 446.484 538.407 476.574C491.276 532.667 416.311 552.945 344.078 536.428C296.094 525.471 252.037 497.343 224.032 458.422C206.956 434.546 197.222 407.89 191.075 380.089Z" fill="url(#paint0_linear_328_719)"/>
<path opacity="0.52" d="M310.438 329.883C291.142 275.426 284.482 212.792 315.39 164.222C315.39 164.059 315.561 164.059 315.561 163.895C347.664 113.363 419.897 88.3421 479.323 98.4813C499.985 102.079 520.135 111.564 532.601 127.754C561.289 165.04 534.138 221.787 571.193 254.003C600.906 279.842 643.256 272.156 676.896 288.673C708.658 304.208 729.832 337.406 732.565 371.258C742.127 494.563 592.027 532.994 490.422 509.935C417.507 493.418 361.325 436.999 329.393 374.201C322.562 360.464 316.073 345.583 310.438 329.883Z" fill="url(#paint1_linear_328_719)"/>
<path d="M25.9465 67.9003C79.7369 -7.97998 193.124 9.19121 259.038 58.7423C292.166 83.5996 318.805 115.162 346.811 144.925C372.254 171.909 404.187 208.377 445.17 211.157C463.271 212.302 475.395 200.527 491.447 195.621C537.382 181.557 578.707 225.384 585.708 265.451C599.882 347.218 519.281 395.624 448.585 416.23C282.433 464.636 52.7563 387.284 7.33325 213.61C-5.13245 166.839 -3.42474 109.111 25.9465 67.9003Z" fill="url(#paint2_linear_328_719)"/>
<path d="M75.1263 424.407C99.2039 398.895 142.919 407.235 173.827 412.959C186.635 415.412 186.293 432.42 173.486 434.546C157.605 437.326 140.87 441.251 125.16 446.32C113.206 450.245 100.229 456.787 87.4213 453.516C74.9556 450.409 64.7098 435.527 75.1263 424.407Z" fill="url(#paint3_linear_328_719)"/>
<path d="M158.8 449.918C165.802 443.704 175.364 441.414 184.415 439.452C190.391 438.144 194.319 447.302 189.025 450.245C181.512 454.497 175.023 460.221 167.338 464.146C163.582 466.108 158.459 463.819 156.58 460.548C154.36 456.787 155.556 452.862 158.8 449.918Z" fill="url(#paint4_linear_328_719)"/>
<path d="M645.817 226.856C632.236 226.856 621.227 216.313 621.227 203.307C621.227 190.302 632.236 179.758 645.817 179.758C659.398 179.758 670.407 190.302 670.407 203.307C670.407 216.313 659.398 226.856 645.817 226.856Z" fill="url(#paint5_linear_328_719)"/>
<path d="M698.583 164.877C690.944 164.877 684.751 158.946 684.751 151.63C684.751 144.314 690.944 138.384 698.583 138.384C706.222 138.384 712.415 144.314 712.415 151.63C712.415 158.946 706.222 164.877 698.583 164.877Z" fill="url(#paint6_linear_328_719)"/>
<defs>
<linearGradient id="paint0_linear_328_719" x1="385.221" y1="0" x2="385.221" y2="542" gradientUnits="userSpaceOnUse">
<stop stop-color="#FAFAFA" stop-opacity="0.7"/>
<stop offset="1" stop-color="#FAFAFA"/>
</linearGradient>
<linearGradient id="paint1_linear_328_719" x1="513.541" y1="96.2586" x2="513.541" y2="516.274" gradientUnits="userSpaceOnUse">
<stop stop-color="#FAFAFA" stop-opacity="0.7"/>
<stop offset="1" stop-color="#FAFAFA"/>
</linearGradient>
<linearGradient id="paint2_linear_328_719" x1="293.672" y1="16.2368" x2="293.672" y2="430.421" gradientUnits="userSpaceOnUse">
<stop stop-color="#FAFAFA" stop-opacity="0.7"/>
<stop offset="1" stop-color="#FAFAFA"/>
</linearGradient>
<linearGradient id="paint3_linear_328_719" x1="127.046" y1="406.94" x2="127.046" y2="454.403" gradientUnits="userSpaceOnUse">
<stop stop-color="#FAFAFA" stop-opacity="0.7"/>
<stop offset="1" stop-color="#FAFAFA"/>
</linearGradient>
<linearGradient id="paint4_linear_328_719" x1="173.479" y1="439.325" x2="173.479" y2="464.872" gradientUnits="userSpaceOnUse">
<stop stop-color="#FAFAFA" stop-opacity="0.7"/>
<stop offset="1" stop-color="#FAFAFA"/>
</linearGradient>
<linearGradient id="paint5_linear_328_719" x1="645.817" y1="179.758" x2="645.817" y2="226.856" gradientUnits="userSpaceOnUse">
<stop stop-color="#FAFAFA" stop-opacity="0.7"/>
<stop offset="1" stop-color="#FAFAFA"/>
</linearGradient>
<linearGradient id="paint6_linear_328_719" x1="698.583" y1="138.384" x2="698.583" y2="164.877" gradientUnits="userSpaceOnUse">
<stop stop-color="#FAFAFA" stop-opacity="0.7"/>
<stop offset="1" stop-color="#FAFAFA"/>
</linearGradient>
</defs>
</svg>
